# xmcd
#
# Track frame offsets:
#	187
#	10552
#	19512
#	30442
#	42070
#	52035
#	65225
#	76380
#	87220
#	97800
#	109405
#	119632
#	128130
#	137310
#	147740
#	159352
#	170240
#	181922
#
# Disc length: 2584 seconds
#
# Revision: 2
# Processed by: cddbd v1.5.2PL0 Copyright (c) Steve Scherf et al.
# Submitted via: MusicWizard 7.1.1b
#
DISCID=ec0a1612
DTITLE=Chet Atkins - Pickin' On Country
DYEAR=1988
DGENRE=Country
TTITLE0=Country Gentleman
TTITLE1=Chinatown, My Chinatown
TTITLE2=Walk Don't Run
TTITLE3=Black Mountain Rag
TTITLE4=Trambone
TTITLE5=El Condor Pasa
TTITLE6=Galloping On The Guitar
TTITLE7=Steeplechase Lane
TTITLE8=Blue Steel Blues
TTITLE9=Music To Watch Girls By
TTITLE10=Main Street Breakdown
TTITLE11=Oh! By Jingo! Oh! By Gee! Youe The Only Girl For Me
TTITLE12=Freight Train
TTITLE13=The Enchanted Sea
TTITLE14=The Masterpiece
TTITLE15=Blue Angel
TTITLE16=Canned Heat
TTITLE17=Knee Action
EXTD=
EXTT0=
EXTT1=
EXTT2=
EXTT3=
EXTT4=
EXTT5=
EXTT6=
EXTT7=
EXTT8=
EXTT9=
EXTT10=
EXTT11=
EXTT12=
EXTT13=
EXTT14=
EXTT15=
EXTT16=
EXTT17=
PLAYORDER=
